<?xml version="1.0" encoding="utf-8"?>
<!-- Generator: Adobe Illustrator 19.1.0, SVG Export Plug-In . SVG Version: 6.00 Build 0)  -->
<svg version="1.1" id="Layer_1" xmlns="http://www.w3.org/2000/svg" xmlns:xlink="http://www.w3.org/1999/xlink" x="0px" y="0px"
	 viewBox="0 0 419.9 183.4" style="enable-background:new 0 0 419.9 183.4;" xml:space="preserve">
<style type="text/css">
	.st0{fill-rule:evenodd;clip-rule:evenodd;fill:#515254;}
	.st1{fill-rule:evenodd;clip-rule:evenodd;fill:url(#SVGID_1_);}
	.st2{fill-rule:evenodd;clip-rule:evenodd;fill:url(#SVGID_2_);}
	.st3{fill-rule:evenodd;clip-rule:evenodd;fill:url(#SVGID_3_);}
	.st4{fill-rule:evenodd;clip-rule:evenodd;fill:url(#SVGID_4_);}
</style>
<g>
	<g>
		<path class="st0" d="M133.5,72.1h4.4v5.7c1.3-1.9,3.1-3.5,5.4-4.7c2.3-1.2,4.8-1.8,7.4-1.8c5.2,0,9.5,1.7,13,5.2
			c3.4,3.5,5.1,7.8,5.1,13c0,5-1.7,9.3-5.1,12.8c-3.4,3.5-7.6,5.2-12.7,5.2c-2.8,0-5.3-0.5-7.6-1.6c-2.2-1.1-4.1-2.7-5.6-4.7v2.4
			v5.1v9.1h-4.4V72.1L133.5,72.1z M137.9,89.1c0,3.9,1.3,7.3,3.9,10.1c2.6,2.8,5.6,4.2,9.2,4.2c3.6,0,6.7-1.3,9.3-4
			c2.6-2.6,3.9-5.9,3.9-9.7c0-4-1.3-7.4-3.9-10.1c-2.6-2.7-5.8-4.1-9.5-4.1c-3.4,0-6.4,1.4-9,4.1C139.2,82.3,137.9,85.5,137.9,89.1z
			"/>
		<path class="st0" d="M178.8,89.3c0,3.9,1.2,7.1,3.7,9.8c2.5,2.6,5.6,4,9.3,4c3.6,0,6.7-1.3,9.1-3.9c2.4-2.6,3.7-5.9,3.7-9.8
			c0-4-1.2-7.3-3.7-9.8c-2.5-2.6-5.6-3.9-9.5-3.9c-3.4,0-6.4,1.3-8.8,4C180,82.2,178.8,85.4,178.8,89.3L178.8,89.3z M174.3,89.4
			c0-4.9,1.7-9.2,5.1-12.7c3.4-3.5,7.4-5.3,12-5.3c4.9,0,9,1.7,12.5,5.2c3.5,3.5,5.2,7.6,5.2,12.3c0,5-1.7,9.3-5.1,12.9
			c-3.4,3.5-7.5,5.3-12.3,5.3c-4.9,0-9-1.7-12.4-5.2C176,98.5,174.3,94.3,174.3,89.4z"/>
		<path class="st0" d="M219.1,106.6h-4.4V72.1h4.2v4c1-1.5,2.2-2.6,3.5-3.4c0.6-0.4,1.4-0.6,2.1-0.8c0.8-0.2,1.6-0.3,2.4-0.3l0,4.8
			c-2.8,0.3-4.8,1.1-6,2.5c-1.2,1.4-1.8,3.7-1.8,6.9V106.6z"/>
		<polygon class="st0" points="238.3,106.6 238.3,76.5 231.8,76.5 231.8,72.1 238.3,72.1 238.3,60.9 242.8,60.9 242.8,72.1 
			249.3,72.1 249.3,76.5 242.8,76.5 242.8,106.6 		"/>
	</g>
	<path class="st0" d="M276.2,86.5l-6.1,20.1h-4.6l-12-34.5l8.1,0l6.1,19.7l6-19.7l4.9,0l6,19.7l6.1-19.7l8.1,0l-12,34.5h-4.6
		L276.2,86.5L276.2,86.5z M300.3,89.4c0-2.3,0.4-4.6,1.2-6.8c0.8-2.2,2.1-4.1,3.7-5.8c1.7-1.7,3.6-3.1,5.8-4.2
		c2.2-1,4.4-1.5,6.8-1.5c2.4,0,4.8,0.4,7,1.3c2.2,0.9,4.1,2.3,5.8,4c1.7,1.7,3,3.7,3.9,5.8c0.9,2.2,1.4,4.4,1.4,6.7
		c0,2.4-0.4,4.7-1.2,6.9c-0.8,2.2-2,4.1-3.6,5.8c-0.8,0.9-1.8,1.8-2.8,2.5c-1,0.7-2,1.4-3.2,1.9c-2.2,1-4.5,1.5-7,1.5
		c-2.4,0-4.8-0.4-7-1.4c-2.2-0.9-4.1-2.3-5.7-4c-1.6-1.7-2.9-3.7-3.8-5.9c-0.4-1.1-0.8-2.2-1-3.4C300.4,91.7,300.3,90.6,300.3,89.4
		L300.3,89.4z M308.1,89.3c0,2.9,0.9,5.5,2.9,7.6c1.9,2,4.3,3,7.1,3c2.8,0,5.1-1,7-3c2-2.1,2.9-4.7,2.9-7.7c0-2.9-0.8-5.5-2.8-7.7
		c-1.9-2-4.3-3-7.1-3c-2.8,0-5.1,1-7.1,3C309,83.8,308.1,86.4,308.1,89.3L308.1,89.3z M348.1,74.3c0.6-0.6,1.3-1.1,2.1-1.6
		c1.5-0.8,3.1-1.2,4.8-1.2h0.9v7.9H355c-1,0-2,0.2-3,0.6c-0.8,0.3-1.5,0.8-2.1,1.5c-1.3,1.5-1.5,4.1-1.5,6v19.1h-7.6V72.1h7.3V74.3
		L348.1,74.3z M375.2,95l-7.5,11.7l-8.6,0l11.7-17.9l-10.3-16.6l8.6,0c21.8,34.5,0,0,21.8,34.5l-8.6,0L375.2,95z"/>
	<radialGradient id="SVGID_1_" cx="384.04" cy="79.3858" r="7.0737" gradientUnits="userSpaceOnUse">
		<stop  offset="0" style="stop-color:#E75D25"/>
		<stop  offset="1" style="stop-color:#D54D2A"/>
	</radialGradient>
	<polygon class="st1" points="377.2,80.2 381.4,86.7 390.9,72.1 382,72.1 	"/>
	<linearGradient id="SVGID_2_" gradientUnits="userSpaceOnUse" x1="29.3898" y1="95.6386" x2="98.559" y2="95.6386">
		<stop  offset="0" style="stop-color:#F47A3A"/>
		<stop  offset="0.1806" style="stop-color:#EB7035"/>
		<stop  offset="0.6939" style="stop-color:#DB592A"/>
		<stop  offset="1" style="stop-color:#D55028"/>
	</linearGradient>
	<polygon class="st2" points="29.4,139.9 65.5,115.9 101,92.4 70.1,71.9 101,92.4 101,51.4 70.1,71.9 29.4,98.9 	"/>
	<linearGradient id="SVGID_3_" gradientUnits="userSpaceOnUse" x1="29.6734" y1="48.2491" x2="101.029" y2="48.2491">
		<stop  offset="0" style="stop-color:#D54927"/>
		<stop  offset="0.226" style="stop-color:#D74E28"/>
		<stop  offset="0.4968" style="stop-color:#DD5B2C"/>
		<stop  offset="0.7895" style="stop-color:#E87035"/>
		<stop  offset="1" style="stop-color:#F58240"/>
	</linearGradient>
	<polygon class="st3" points="70.1,71.9 101,51.4 60.6,24.6 60.6,24.6 29.7,45.1 29.8,45.2 	"/>
	<linearGradient id="SVGID_4_" gradientUnits="userSpaceOnUse" x1="47.3453" y1="157.0703" x2="47.3453" y2="116.0755">
		<stop  offset="0" style="stop-color:#E56F30"/>
		<stop  offset="1.788205e-02" style="stop-color:#E36D30"/>
		<stop  offset="0.4252" style="stop-color:#CD5229"/>
		<stop  offset="0.767" style="stop-color:#C04127"/>
		<stop  offset="1" style="stop-color:#BC3A26"/>
	</linearGradient>
	<polygon class="st4" points="65.3,157.1 29.4,139.9 65.3,116.1 	"/>
</g>
</svg>
